<?xml version="1.0" encoding="UTF-8" standalone="no"?>
<!-- Created with Inkscape (http://www.inkscape.org/) -->

<svg
   width="210mm"
   height="297mm"
   viewBox="0 0 210 297"
   version="1.1"
   id="svg5"
   inkscape:version="1.1 (c68e22c387, 2021-05-23)"
   sodipodi:docname="logoipsum.svg"
   xmlns:inkscape="http://www.inkscape.org/namespaces/inkscape"
   xmlns:sodipodi="http://sodipodi.sourceforge.net/DTD/sodipodi-0.dtd"
   xmlns="http://www.w3.org/2000/svg"
   xmlns:svg="http://www.w3.org/2000/svg">
  <sodipodi:namedview
     id="namedview7"
     pagecolor="#ffffff"
     bordercolor="#666666"
     borderopacity="1.0"
     inkscape:pageshadow="2"
     inkscape:pageopacity="0.0"
     inkscape:pagecheckerboard="0"
     inkscape:document-units="mm"
     showgrid="false"
     inkscape:zoom="5.0386644"
     inkscape:cx="128.30781"
     inkscape:cy="275.07289"
     inkscape:window-width="1920"
     inkscape:window-height="1021"
     inkscape:window-x="0"
     inkscape:window-y="27"
     inkscape:window-maximized="1"
     inkscape:current-layer="layer1" />
  <defs
     id="defs2" />
  <g
     inkscape:label="Layer 1"
     inkscape:groupmode="layer"
     id="layer1">
    <g
       style="fill:none"
       id="g26"
       transform="matrix(0.26458333,0,0,0.26458333,24.648127,60.16215)">
      <path
         d="M 64.9315,11.4284 C 62.1883,8.6852 58.9316,6.5091 55.3475,5.0245 51.7633,3.5399 47.9219,2.7758 44.0424,2.7758 c -3.8795,0 -7.7209,0.7641 -11.3051,2.2487 -3.5841,1.4846 -6.8408,3.6607 -9.584,6.4039 l 20.8891,20.889 z"
         class="ccompli1"
         fill="#ffd200"
         id="path9" />
      <path
         d="m 44.0686,32.3475 c 2.7432,2.7432 5.9998,4.9192 9.584,6.4038 C 57.2367,40.2359 61.0782,41 64.9577,41 c 3.8793,0 7.7213,-0.7641 11.3053,-2.2487 3.584,-1.4846 6.841,-3.6606 9.584,-6.4038 L 64.9577,11.4584 Z"
         class="ccompli2"
         fill="#06e07f"
         id="path11" />
      <path
         d="m 44.017,32.3429 c -2.7432,2.7432 -5.9999,4.9192 -9.584,6.4038 -3.5842,1.4846 -7.4256,2.2487 -11.3051,2.2487 -3.8795,0 -7.7209,-0.7641 -11.3051,-2.2487 C 8.2387,37.2621 4.982,35.0861 2.2388,32.3429 L 23.1279,11.4538 Z"
         class="ccustom"
         fill="#e3073c"
         id="path13" />
      <path
         d="M 64.9831,11.433 C 67.726,8.6898 70.983,6.5138 74.567,5.0292 78.151,3.5446 81.993,2.7805 85.872,2.7805 c 3.88,0 7.721,0.7641 11.305,2.2487 3.584,1.4846 6.841,3.6606 9.584,6.4038 L 85.872,32.3221 Z"
         class="ccustom"
         fill="#1f84ef"
         id="path15" />
    </g>
    <path
       style="fill:#f38418;fill-opacity:0.85490197;stroke:#00bfff;stroke-width:0.264583"
       id="path124988"
       d="m 22.823865,75.806032 c 0.689196,0.48482 1.320008,1.048115 1.965189,1.589 0.553338,0.450265 1.084895,0.924623 1.568286,1.449544 0.269895,0.279773 0.576076,0.521835 0.869232,0.776467 0.242985,0.196773 0.435149,0.446789 0.670544,0.650965 0.183597,0.171249 0.407726,0.289875 0.617691,0.425119 0.280458,0.183941 0.567687,0.356955 0.843058,0.548524 0,0 3.210411,-2.069314 3.210411,-2.069314 v 0 c -0.285165,-0.158764 -0.552788,-0.345578 -0.815133,-0.539544 -0.18515,-0.144862 -0.360098,-0.301358 -0.546373,-0.444717 -0.197834,-0.145934 0.03472,0.02016 -0.172259,-0.110768 -0.212104,-0.134173 -0.413401,-0.285824 -0.61036,-0.441036 -0.170899,-0.162526 -0.180972,-0.164751 -0.333586,-0.337775 -0.154403,-0.175057 -0.290814,-0.366435 -0.497615,-0.485939 -0.229939,-0.143669 -0.465617,-0.278996 -0.693031,-0.426588 -0.398548,-0.258654 -0.779963,-0.542822 -1.148655,-0.842304 -0.478705,-0.416843 -0.97101,-0.839935 -1.340032,-1.362562 -0.0992,-0.140499 -0.158799,-0.268602 -0.233471,-0.417255 0,0 -3.353896,2.038183 -3.353896,2.038183 z" />
  </g>
</svg>
